<svg width="131" height="137" viewBox="0 0 131 137" fill="none" xmlns="http://www.w3.org/2000/svg">
<path d="M106.375 28H24.625C17.1108 28 11 34.1108 11 41.625V133.594C11 134.874 11.7153 136.053 12.8598 136.632C13.3503 136.877 13.8817 137 14.4062 137C15.1147 137 15.8233 136.775 16.4159 136.339L43.4479 116.562H106.375C113.889 116.562 120 110.452 120 102.938V41.625C120 34.1108 113.889 28 106.375 28ZM38.25 75.6875C34.4895 75.6875 31.4375 72.6355 31.4375 68.875C31.4375 65.1145 34.4895 62.0625 38.25 62.0625C42.0105 62.0625 45.0625 65.1145 45.0625 68.875C45.0625 72.6355 42.0105 75.6875 38.25 75.6875ZM65.5 75.6875C61.7395 75.6875 58.6875 72.6355 58.6875 68.875C58.6875 65.1145 61.7395 62.0625 65.5 62.0625C69.2605 62.0625 72.3125 65.1145 72.3125 68.875C72.3125 72.6355 69.2605 75.6875 65.5 75.6875ZM92.75 75.6875C88.9895 75.6875 85.9375 72.6355 85.9375 68.875C85.9375 65.1145 88.9895 62.0625 92.75 62.0625C96.5105 62.0625 99.5625 65.1145 99.5625 68.875C99.5625 72.6355 96.5105 75.6875 92.75 75.6875Z" fill="#F76F0A"/>
<rect x="28" y="55" width="76" height="28" fill="#F76F0A"/>
<rect x="41" y="59" width="12" height="26" rx="6" fill="white"/>
<rect x="86" y="59" width="12" height="26" rx="6" fill="white"/>
<rect y="62" width="8" height="19" rx="4" fill="#F76F0A"/>
<rect x="123" y="62" width="8" height="19" rx="4" fill="#F76F0A"/>
<line x1="63.5" y1="30" x2="63.5" y2="12" stroke="#F76F0A" stroke-width="3"/>
<circle cx="63.5" cy="7.5" r="7.5" fill="#F76F0A"/>
</svg>
